<?xml version="1.0" encoding="UTF-8" standalone="no"?>
<!DOCTYPE score-partwise PUBLIC "-//Recordare//DTD MusicXML 3.0 Partwise//EN" "http://www.musicxml.org/dtds/partwise.dtd">
<score-partwise version="3.0">
<part-list>
<score-part id="P1">
<part-name>Part 1</part-name>
</score-part>
</part-list>
<part id="P1">
<measure number="1">
<attributes>
<divisions>64</divisions>
<time><beats>4</beats><beat-type>4</beat-type></time>
<clef><sign>F</sign><line>4</line></clef>
</attributes>
<note>
<pitch>
<step>E</step>
<alter>1</alter>
<octave>3</octave>
</pitch>
<duration>256</duration>
<voice>1</voice>
<type>whole</type>
<accidental>sharp</accidental>
</note>
</measure>
<measure number="2">
<attributes>
<divisions>64</divisions>
</attributes>
<note>
<pitch>
<step>E</step>
<alter>1</alter>
<octave>3</octave>
</pitch>
<duration>256</duration>
<voice>1</voice>
<type>whole</type>
<accidental>sharp</accidental>
</note>
</measure>
<measure number="3">
<attributes>
<divisions>64</divisions>
</attributes>
<note>
<pitch>
<step>E</step>
<alter>1</alter>
<octave>3</octave>
</pitch>
<duration>128</duration>
<voice>1</voice>
<type>half</type>
<accidental>sharp</accidental>
</note>
<note>
<pitch>
<step>F</step>
<alter>1</alter>
<octave>3</octave>
</pitch>
<duration>128</duration>
<voice>1</voice>
<type>half</type>
</note>
</measure>
<measure number="4">
<attributes>
<divisions>64</divisions>
</attributes>
<note>
<pitch>
<step>F</step>
<alter>1</alter>
<octave>3</octave>
</pitch>
<duration>256</duration>
<voice>1</voice>
<type>whole</type>
</note>
</measure>
<measure number="5">
<attributes>
<divisions>64</divisions>
</attributes>
<note>
<pitch>
<step>F</step>
<alter>1</alter>
<octave>3</octave>
</pitch>
<duration>256</duration>
<voice>1</voice>
<type>whole</type>
</note>
</measure>
<measure number="6">
<attributes>
<divisions>64</divisions>
</attributes>
<note>
<pitch>
<step>G</step>
<alter>1</alter>
<octave>3</octave>
</pitch>
<duration>64</duration>
<voice>1</voice>
<type>quarter</type>
</note>
<note>
<pitch>
<step>A</step>
<octave>3</octave>
</pitch>
<duration>64</duration>
<voice>1</voice>
<type>quarter</type>
</note>
<note>
<rest />
<duration>64</duration>
<voice>1</voice>
<type>quarter</type>
</note>
<note>
<pitch>
<step>B</step>
<octave>3</octave>
</pitch>
<duration>64</duration>
<voice>1</voice>
<type>quarter</type>
</note>
</measure>
<measure number="7">
<attributes>
<divisions>64</divisions>
</attributes>
<note>
<pitch>
<step>E</step>
<octave>3</octave>
</pitch>
<duration>64</duration>
<voice>1</voice>
<type>quarter</type>
</note>
<note>
<pitch>
<step>B</step>
<alter>1</alter>
<octave>2</octave>
</pitch>
<duration>64</duration>
<voice>1</voice>
<type>quarter</type>
<accidental>sharp</accidental>
</note>
<note>
<pitch>
<step>B</step>
<alter>1</alter>
<octave>2</octave>
</pitch>
<duration>128</duration>
<voice>1</voice>
<type>half</type>
</note>
</measure>
<measure number="8">
<attributes>
<divisions>64</divisions>
</attributes>
<note>
<pitch>
<step>B</step>
<alter>1</alter>
<octave>2</octave>
</pitch>
<duration>256</duration>
<voice>1</voice>
<type>whole</type>
<accidental>sharp</accidental>
</note>
</measure>
<measure number="9">
<attributes>
<divisions>64</divisions>
</attributes>
<note>
<pitch>
<step>B</step>
<alter>1</alter>
<octave>2</octave>
</pitch>
<duration>128</duration>
<voice>1</voice>
<type>half</type>
<accidental>sharp</accidental>
</note>
<note>
<pitch>
<step>C</step>
<alter>1</alter>
<octave>3</octave>
</pitch>
<duration>128</duration>
<voice>1</voice>
<type>half</type>
</note>
</measure>
<measure number="10">
<attributes>
<divisions>64</divisions>
</attributes>
<note>
<pitch>
<step>C</step>
<alter>1</alter>
<octave>3</octave>
</pitch>
<duration>128</duration>
<voice>1</voice>
<type>half</type>
</note>
<note>
<pitch>
<step>F</step>
<alter>1</alter>
<octave>3</octave>
</pitch>
<duration>128</duration>
<voice>1</voice>
<type>half</type>
</note>
</measure>
<measure number="11">
<attributes>
<divisions>64</divisions>
</attributes>
<note>
<pitch>
<step>B</step>
<octave>2</octave>
</pitch>
<duration>256</duration>
<voice>1</voice>
<type>whole</type>
</note>
</measure>
<measure number="12">
<attributes>
<divisions>64</divisions>
</attributes>
<note>
<pitch>
<step>B</step>
<octave>2</octave>
</pitch>
<duration>256</duration>
<voice>1</voice>
<type>whole</type>
</note>
</measure>
<measure number="13">
<attributes>
<divisions>64</divisions>
</attributes>
<note>
<pitch>
<step>B</step>
<octave>2</octave>
</pitch>
<duration>128</duration>
<voice>1</voice>
<type>half</type>
</note>
<note>
<pitch>
<step>C</step>
<alter>1</alter>
<octave>3</octave>
</pitch>
<duration>64</duration>
<voice>1</voice>
<type>quarter</type>
</note>
<note>
<pitch>
<step>F</step>
<alter>1</alter>
<octave>2</octave>
</pitch>
<duration>64</duration>
<voice>1</voice>
<type>quarter</type>
</note>
</measure>
<measure number="14">
<attributes>
<divisions>64</divisions>
</attributes>
<note>
<pitch>
<step>F</step>
<alter>1</alter>
<octave>2</octave>
</pitch>
<duration>256</duration>
<voice>1</voice>
<type>whole</type>
</note>
</measure>
<measure number="15">
<attributes>
<divisions>64</divisions>
</attributes>
<note>
<pitch>
<step>F</step>
<alter>1</alter>
<octave>2</octave>
</pitch>
<duration>128</duration>
<voice>1</voice>
<type>half</type>
</note>
<note>
<rest />
<duration>64</duration>
<voice>1</voice>
<type>quarter</type>
</note>
<note>
<pitch>
<step>G</step>
<alter>1</alter>
<octave>2</octave>
</pitch>
<duration>64</duration>
<voice>1</voice>
<type>quarter</type>
</note>
</measure>
<measure number="16">
<attributes>
<divisions>64</divisions>
</attributes>
<note>
<pitch>
<step>C</step>
<alter>1</alter>
<octave>3</octave>
</pitch>
<duration>64</duration>
<voice>1</voice>
<type>quarter</type>
</note>
</measure>
</part>
</score-partwise>
